<svg xmlns="http://www.w3.org/2000/svg" viewBox="0 0 500 500" width="400" height="400">
  <!-- Фон -->
  <rect width="500" height="500" fill="#f8f9fa" rx="10" ry="10" />
  
  <!-- Робот -->
  <g id="robot">
    <!-- Голова робота -->
    <rect x="150" y="100" width="200" height="180" rx="20" ry="20" fill="#e0e0e0" stroke="#bbbbbb" stroke-width="4" />
    
    <!-- Глаза -->
    <g id="eyes">
      <!-- Левый глаз -->
      <circle cx="210" cy="160" r="30" fill="white" stroke="#bbbbbb" stroke-width="2" />
      <circle cx="210" cy="160" r="15" fill="#dc3545">
        <animate attributeName="r" values="15;5;15" dur="2s" repeatCount="indefinite" />
      </circle>
      
      <!-- Правый глаз -->
      <circle cx="290" cy="160" r="30" fill="white" stroke="#bbbbbb" stroke-width="2" />
      <circle cx="290" cy="160" r="15" fill="#dc3545">
        <animate attributeName="r" values="5;15;5" dur="2s" repeatCount="indefinite" />
      </circle>
    </g>
    
    <!-- Рот -->
    <path d="M200,220 Q250,250 300,220" fill="none" stroke="#555555" stroke-width="5" stroke-linecap="round">
      <animate attributeName="d" values="M200,220 Q250,250 300,220;M200,230 Q250,200 300,230;M200,220 Q250,250 300,220" dur="5s" repeatCount="indefinite" />
    </path>
    
    <!-- Антенны -->
    <line x1="180" y1="100" x2="160" y2="70" stroke="#bbbbbb" stroke-width="4" />
    <circle cx="160" cy="70" r="10" fill="#dc3545">
      <animate attributeName="fill" values="#dc3545;#ffc107;#dc3545" dur="1s" repeatCount="indefinite" />
    </circle>
    
    <line x1="320" y1="100" x2="340" y2="70" stroke="#bbbbbb" stroke-width="4" />
    <circle cx="340" cy="70" r="10" fill="#ffc107">
      <animate attributeName="fill" values="#ffc107;#dc3545;#ffc107" dur="1s" repeatCount="indefinite" />
    </circle>
    
    <!-- Тело робота -->
    <rect x="170" y="280" width="160" height="120" rx="10" ry="10" fill="#e0e0e0" stroke="#bbbbbb" stroke-width="4" />
    
    <!-- Кнопки на теле -->
    <circle cx="220" cy="320" r="15" fill="#ffc107" />
    <circle cx="250" cy="320" r="15" fill="#0d6efd" />
    <circle cx="280" cy="320" r="15" fill="#dc3545" />
    
    <!-- Экран на теле -->
    <rect x="200" y="350" width="100" height="30" rx="5" ry="5" fill="#343a40" />
    <text x="250" y="370" font-family="monospace" font-size="16" fill="#ff0000" text-anchor="middle">ERROR</text>
    
    <!-- Руки -->
    <g id="left-arm">
      <line x1="170" y1="300" x2="100" y2="280" stroke="#bbbbbb" stroke-width="10" stroke-linecap="round" />
      <line x1="100" y1="280" x2="80" y2="320" stroke="#bbbbbb" stroke-width="10" stroke-linecap="round">
        <animate attributeName="y2" values="320;300;320" dur="3s" repeatCount="indefinite" />
      </line>
      <circle cx="80" cy="320" r="15" fill="#e0e0e0" stroke="#bbbbbb" stroke-width="2">
        <animate attributeName="cy" values="320;300;320" dur="3s" repeatCount="indefinite" />
      </circle>
    </g>
    
    <g id="right-arm">
      <line x1="330" y1="300" x2="400" y2="280" stroke="#bbbbbb" stroke-width="10" stroke-linecap="round" />
      <line x1="400" y1="280" x2="420" y2="320" stroke="#bbbbbb" stroke-width="10" stroke-linecap="round">
        <animate attributeName="y2" values="320;340;320" dur="4s" repeatCount="indefinite" />
      </line>
      <circle cx="420" cy="320" r="15" fill="#e0e0e0" stroke="#bbbbbb" stroke-width="2">
        <animate attributeName="cy" values="320;340;320" dur="4s" repeatCount="indefinite" />
      </circle>
    </g>
    
    <!-- Ноги -->
    <rect x="190" y="400" width="30" height="60" rx="5" ry="5" fill="#bbbbbb" />
    <rect x="280" y="400" width="30" height="60" rx="5" ry="5" fill="#bbbbbb" />
  </g>
  
  <!-- Искры вокруг робота -->
  <g id="sparks">
    <path d="M130,200 L120,190 L110,210" fill="none" stroke="#ffc107" stroke-width="3" stroke-linecap="round">
      <animate attributeName="opacity" values="1;0;1" dur="0.7s" repeatCount="indefinite" />
    </path>
    <path d="M370,200 L380,190 L390,210" fill="none" stroke="#ffc107" stroke-width="3" stroke-linecap="round">
      <animate attributeName="opacity" values="0;1;0" dur="0.5s" repeatCount="indefinite" />
    </path>
    <path d="M130,350 L120,340 L110,360" fill="none" stroke="#ffc107" stroke-width="3" stroke-linecap="round">
      <animate attributeName="opacity" values="0.5;1;0.5" dur="0.8s" repeatCount="indefinite" />
    </path>
    <path d="M370,350 L380,340 L390,360" fill="none" stroke="#ffc107" stroke-width="3" stroke-linecap="round">
      <animate attributeName="opacity" values="1;0.5;1" dur="0.6s" repeatCount="indefinite" />
    </path>
  </g>
  
  <!-- Текст ошибки -->
  <text x="250" y="480" font-family="Arial, sans-serif" font-size="18" font-weight="bold" fill="#dc3545" text-anchor="middle">Ой! Что-то пошло не так...</text>
</svg> 